<?xml version="1.0" encoding="utf-8"?>
<!-- Generator: Adobe Illustrator 25.1.0, SVG Export Plug-In . SVG Version: 6.00 Build 0)  -->
<svg version="1.1"
	 id="svg4566" xmlns:cc="http://creativecommons.org/ns#" xmlns:dc="http://purl.org/dc/elements/1.1/" xmlns:rdf="http://www.w3.org/1999/02/22-rdf-syntax-ns#" xmlns:svg="http://www.w3.org/2000/svg"
	 xmlns="http://www.w3.org/2000/svg" xmlns:xlink="http://www.w3.org/1999/xlink" x="0px" y="0px" viewBox="0 0 129 99.2"
	 style="enable-background:new 0 0 129 99.2;" xml:space="preserve">
<style type="text/css">
	.st0{fill-rule:evenodd;clip-rule:evenodd;fill:#181716;}
	.st1{fill:#FFFFFF;}
	.st2{fill-rule:evenodd;clip-rule:evenodd;fill:#268151;}
	.st3{fill-rule:evenodd;clip-rule:evenodd;fill:#E3001E;}
	.st4{fill-rule:evenodd;clip-rule:evenodd;fill:#FFFFFF;}
</style>
<g>
	<g id="g3478" transform="matrix(0.99798684,0,0,0.99798684,200.315,125.09287)">
		<path id="path3480" class="st0" d="M-181.6-62.4l0-52.7l90.9,0v52.7l-45.5,26.1L-181.6-62.4z"/>
	</g>
	<g id="g3482" transform="matrix(0.99798684,0,0,0.99798684,201.23718,145.3041)">
		<path id="path3484" class="st1" d="M-180.2-133l0,49l43.1,24.8l0,0h0.1l43.1-24.8l0,0v-49L-180.2-133z"/>
	</g>
	<g id="g3486" transform="matrix(0.99798684,0,0,0.99798684,202.47265,144.14442)">
		<path id="path3488" class="st2" d="M-178.3-128.9v25.6h80.2v-25.6L-178.3-128.9z"/>
	</g>
	<g id="g3490" transform="matrix(0.99798684,0,0,0.99798684,202.47265,132.74344)">
		<path id="path3492" class="st3" d="M-178.3-89.1v16.2l40.1,23l40.1-23v-16.2H-178.3z"/>
	</g>
	<g id="g3494" transform="matrix(0.99798684,0,0,0.99798684,221.19387,120.1149)">
		<path id="path3496" class="st1" d="M-150.5-45l0-28.4c0-0.1-0.1-0.1-0.1-0.1h-2.9c-0.1,0-0.1,0.1-0.1,0.1v26.6l-3.3,1.8l-3.4-1.8
			v-26.6c0-0.1-0.1-0.1-0.1-0.1h-2.9c0,0-0.1,0-0.1,0c0,0,0,0.1,0,0.1V-45c0,0.1,0,0.1,0.1,0.1l6.4,3.7c0,0,0.1,0,0.1,0l6.4-3.7
			C-150.5-44.9-150.5-44.9-150.5-45"/>
	</g>
	<g id="g3498" transform="matrix(0.99798684,0,0,0.99798684,214.05831,121.15882)">
		<path id="path3500" class="st1" d="M-161.1-48.6c0,0,0.1,0,0.1,0c0,0,0.1-0.1,0.1-0.1v-3.1c0-0.1,0-0.1-0.1-0.1l-6.1-3.3v-7.4
			l5.5,1.4c0,0,0.1-0.1,0.1-0.2l0-3c0-0.1-0.1-0.1-0.1-0.1l-5.5-1.2v-5.9h6.1c0.1,0,0.1-0.1,0.1-0.1v-2.5c0-0.1-0.1-0.1-0.1-0.1h-9
			c-0.1,0-0.1,0.1-0.1,0.1v20.4c0,0.1,0,0.1,0.1,0.1L-161.1-48.6z"/>
	</g>
	<g id="g3502" transform="matrix(0.99798684,0,0,0.99798684,226.96826,123.43521)">
		<path id="path3504" class="st1" d="M-141.9-56.6v-2.8c0-0.1,0-0.1-0.1-0.1c0,0-0.1,0-0.1,0l-6,3.3v-8.2l5.6-1.4
			c0.1,0,0.1-0.1,0.1-0.1v-2.7c0,0,0-0.1-0.1-0.1c0,0-0.1,0-0.1,0l-5.6,1.2V-74h6.1c0.1,0,0.1-0.1,0.1-0.1v-2.5
			c0-0.1-0.1-0.1-0.1-0.1h-9c-0.1,0-0.1,0.1-0.1,0.1v25.3c0,0.1,0,0.1,0.1,0.1c0,0,0.1,0,0.1,0l9-5.2
			C-141.9-56.5-141.9-56.5-141.9-56.6"/>
	</g>
	<g id="g3506" transform="matrix(0.99798684,0,0,0.99798684,207.37078,125.00205)">
		<path id="path3508" class="st1" d="M-171-62l2.5,1.4c0,0,0.1,0,0.1,0c0,0,0.1-0.1,0.1-0.1v-17.5c0-0.1-0.1-0.1-0.1-0.1h-2.5
			c-0.1,0-0.1,0.1-0.1,0.1v6.2l-6-1.3v-4.9c0-0.1-0.1-0.1-0.1-0.1h-2.5c0,0-0.1,0-0.1,0c0,0,0,0.1,0,0.1l0,11.1c0,0.1,0,0.1,0.1,0.1
			l2.5,1.4c0,0,0.1,0,0.1,0c0,0,0.1-0.1,0.1-0.1v-5.1l6,1.5v7.1C-171.1-62.1-171.1-62.1-171-62"/>
	</g>
	<g id="g3510" transform="matrix(0.99798684,0,0,0.99798684,229.95724,130.44007)">
		<path id="path3512" class="st1" d="M-137.4-81h5.2c0.2,0,0.4,0.2,0.4,0.4v1.3c0,0.3-0.1,0.5-0.4,0.6l-5.2,1.1V-81z M-140.2-66.3
			c0,0,0.1,0,0.2,0l2.6-1.5c0,0,0,0,0,0v-7.1l1.5-0.4l4.4,3.9c0,0.1,0.1,0.1,0.2,0l2.2-1.3c0,0,0.1-0.1,0.1-0.1c0,0,0-0.1,0-0.1
			l-3.9-3.3l2.7-0.7c0.9-0.2,1-0.7,1-1.6l0-4.5c-0.1-0.7-0.6-1-1.3-1c0,0-0.1,0-0.1,0h-9.6c-0.1,0-0.2,0.1-0.2,0.2l0,17.2
			C-140.2-66.4-140.2-66.3-140.2-66.3"/>
	</g>
	<g id="g3514" transform="matrix(0.99798684,0,0,0.99798684,210.1462,135.15755)">
		<path id="path3516" class="st4" d="M-166.9-97.5v-15.2h8.3v-4h-22.5v4h8.3v15.2H-166.9z"/>
	</g>
	<g id="g3518" transform="matrix(0.99798684,0,0,0.99798684,232.26457,135.30128)">
		<path id="path3520" class="st4" d="M-134-98c-4.5,0.8-10.4,1.1-14.6-0.5c-3.6-1.3-5.8-4.4-6.3-7.5c-0.5-3.7,1.2-7,4.8-9.2
			c4.2-2.5,10.9-2.4,15.5-0.7v4.2c-3.5-1.3-8.7-2.5-12-0.4c-2.4,1.5-3.1,3.9-2.5,6.4c0.5,1.9,2.5,3.6,4.6,4.3
			c1.6,0.4,3.5,0.5,5.2,0.4v-3.1l-2.3,0v-3.7h7.5L-134-98z"/>
	</g>
	<g id="g3522" transform="matrix(0.99798684,0,0,0.99798684,218.0742,140.96589)">
		<path id="path3524" class="st4" d="M-155.1-117.8l-3.6,6.8h6.9L-155.1-117.8z M-160.3-107.1l-2,3.8h-6l9.8-19.2h6.8l10,19.2h-6
			l-2.1-3.8C-150-107.1-160.3-107.1-160.3-107.1z"/>
	</g>
</g>
</svg>
